# xmcd
#
# Track frame offsets:
#	150
#	11542
#	22860
#	33975
#	45200
#	58772
#	70272
#	79867
#	94837
#	108210
#	119607
#
# Disc length: 1773 seconds
#
# Revision: 1
# Processed by: cddbd v1.5.1PL0 Copyright (c) Steve Scherf et al.
# Submitted via: audiograbber 1.80
#
DISCID=8006eb0b
DTITLE=Faron Young - The Hits
DYEAR=1900
DGENRE=
TTITLE0=Live Fast, Love Hard, Die Young
TTITLE1=Wine Me Up
TTITLE2=Sweet Dreams
TTITLE3=Yellow Bandana
TTITLE4=I Miss You Already (And You're Not Even Gone)
TTITLE5=If I Ever Fall In Love (With A Honky Tonk Girl)
TTITLE6=Goin' Steady
TTITLE7=Your Time's Comin'
TTITLE8=This Little Girl Of Mine
TTITLE9=Keeping Up With The Joneses (with Margie Singleton)
TTITLE10=It's Four In The Morning
EXTD=
EXTT0=
EXTT1=
EXTT2=
EXTT3=
EXTT4=
EXTT5=
EXTT6=
EXTT7=
EXTT8=
EXTT9=
EXTT10=
PLAYORDER=
